<svg height="480pt" viewBox="-8 0 480 480" width="480pt" xmlns="http://www.w3.org/2000/svg"><path d="m272 40h112v16h-112zm0 0"/><path d="m272 88h112v16h-112zm0 0"/><path d="m272 136h112v16h-112zm0 0"/><path d="m272 184h112v16h-112zm0 0"/><path d="m80 40h112v16h-112zm0 0"/><path d="m80 88h112v16h-112zm0 0"/><path d="m80 136h112v16h-112zm0 0"/><path d="m80 184h112v16h-112zm0 0"/><path d="m440 304h-56v-8c0-8.835938-7.164062-16-16-16h-128v-8h200c4.417969 0 8-3.582031 8-8v-224c0-4.417969-3.582031-8-8-8h-24v-24c0-4.417969-3.582031-8-8-8h-144c-12.640625.0351562-24.511719 6.0625-32 16.246094-7.488281-10.183594-19.359375-16.2109378-32-16.246094h-144c-4.417969 0-8 3.582031-8 8v24h-24c-4.417969 0-8 3.582031-8 8v224c0 4.417969 3.582031 8 8 8h200v8c0 8.835938 7.164062 16 16 16h128v8h-344c-13.253906 0-24 10.746094-24 24v128c0 13.253906 10.746094 24 24 24h416c13.253906 0 24-10.746094 24-24v-128c0-13.253906-10.746094-24-24-24zm-40-48h-158.632812c3.402343-9.582031 12.464843-15.988281 22.632812-16h136zm32-208v208h-16v-208zm-168-32h136v208h-136c-8.683594.03125-17.117188 2.914062-24 8.207031v-192.207031c0-13.253906 10.746094-24 24-24zm-200 0h136c13.253906 0 24 10.746094 24 24v192.207031c-6.882812-5.292969-15.316406-8.175781-24-8.207031h-136zm-32 32h16v208h-16zm32 208v-16h136c10.167969.011719 19.230469 6.417969 22.632812 16zm384 200c0 4.417969-3.582031 8-8 8h-416c-4.417969 0-8-3.582031-8-8v-128c0-4.417969 3.582031-8 8-8h416c4.417969 0 8 3.582031 8 8zm0 0"/><path d="m40 384h32c4.417969 0 8-3.582031 8-8v-32c0-4.417969-3.582031-8-8-8h-32c-4.417969 0-8 3.582031-8 8v32c0 4.417969 3.582031 8 8 8zm8-32h16v16h-16zm0 0"/><path d="m104 384h32c4.417969 0 8-3.582031 8-8v-32c0-4.417969-3.582031-8-8-8h-32c-4.417969 0-8 3.582031-8 8v32c0 4.417969 3.582031 8 8 8zm8-32h16v16h-16zm0 0"/><path d="m168 384h32c4.417969 0 8-3.582031 8-8v-32c0-4.417969-3.582031-8-8-8h-32c-4.417969 0-8 3.582031-8 8v32c0 4.417969 3.582031 8 8 8zm8-32h16v16h-16zm0 0"/><path d="m232 384h32c4.417969 0 8-3.582031 8-8v-32c0-4.417969-3.582031-8-8-8h-32c-4.417969 0-8 3.582031-8 8v32c0 4.417969 3.582031 8 8 8zm8-32h16v16h-16zm0 0"/><path d="m328 336h-32c-4.417969 0-8 3.582031-8 8v32c0 4.417969 3.582031 8 8 8h32c4.417969 0 8-3.582031 8-8v-32c0-4.417969-3.582031-8-8-8zm-8 32h-16v-16h16zm0 0"/><path d="m328 400h-288c-4.417969 0-8 3.582031-8 8v32c0 4.417969 3.582031 8 8 8h288c4.417969 0 8-3.582031 8-8v-32c0-4.417969-3.582031-8-8-8zm-8 32h-272v-16h272zm0 0"/><path d="m424 352h-32c-4.417969 0-8 3.582031-8 8v40h-24c-4.417969 0-8 3.582031-8 8v32c0 4.417969 3.582031 8 8 8h64c4.417969 0 8-3.582031 8-8v-80c0-4.417969-3.582031-8-8-8zm-8 80h-48v-16h24c4.417969 0 8-3.582031 8-8v-40h16zm0 0"/></svg>